<?xml version="1.0" encoding="UTF-8"?>
<svg version="1.1" xmlns="http://www.w3.org/2000/svg" width="105" height="105">
<path d="M0 0 C0.84304687 0.40089844 1.68609375 0.80179687 2.5546875 1.21484375 C16.30777068 8.60551929 24.08984614 19.92781349 29.16015625 34.28515625 C31.83428529 46.11351306 31.33930089 60.05359629 26 71 C25.59910156 71.84304687 25.19820313 72.68609375 24.78515625 73.5546875 C17.39448071 87.30777068 6.07218651 95.08984614 -8.28515625 100.16015625 C-20.11351306 102.83428529 -34.05359629 102.33930089 -45 97 C-45.84304687 96.59910156 -46.68609375 96.19820313 -47.5546875 95.78515625 C-61.30777068 88.39448071 -69.08984614 77.07218651 -74.16015625 62.71484375 C-76.83428529 50.88648694 -76.33930089 36.94640371 -71 26 C-70.59910156 25.15695313 -70.19820313 24.31390625 -69.78515625 23.4453125 C-62.39448071 9.69222932 -51.07218651 1.91015386 -36.71484375 -3.16015625 C-24.88648694 -5.83428529 -10.94640371 -5.33930089 0 0 Z " fill="#3767F7" transform="translate(75,4)"/>
<path d="M0 0 C2 2 2 2 2.25 4.5 C2 7 2 7 0 9 C-3.73296326 9.38286803 -4.77626323 9.14915785 -8 7 C-7.91496316 20.94547966 -7.91496316 20.94547966 -1.375 32.5625 C4.15962289 34.91983938 8.7045377 34.7651541 14.375 32.875 C18.56095301 29.88503357 20.0010579 25.90158878 21 21 C21.22117559 18.5861824 21.40572242 16.16885403 21.5625 13.75 C21.64628906 12.48671875 21.73007812 11.2234375 21.81640625 9.921875 C21.90728516 8.47554687 21.90728516 8.47554687 22 7 C21.01 7.66 20.02 8.32 19 9 C16.4375 9.25 16.4375 9.25 14 9 C12 7 12 7 11.8125 3.9375 C12 1 12 1 13 0 C16.93823547 -0.38610152 19.53226199 -0.19727337 23.1953125 1.34765625 C26.31822597 4.30094072 26.45407115 4.84993658 26.76171875 8.921875 C26.76835418 10.86472952 26.74244067 12.80791111 26.6875 14.75 C26.70232422 15.71421875 26.71714844 16.6784375 26.73242188 17.671875 C26.65535043 24.34535527 25.2954369 28.84484589 21 34 C16.7 38 16.7 38 14 38 C13.731875 38.804375 13.46375 39.60875 13.1875 40.4375 C12.795625 41.283125 12.40375 42.12875 12 43 C10.515 43.495 10.515 43.495 9 44 C10.74306077 49.50682841 10.74306077 49.50682841 15.25 52.9375 C22.15030371 54.89258605 26.79582061 54.28456556 33 51 C35.35490728 47.46763908 35.32743705 45.75279632 35.375 41.5625 C35.41753906 39.86287109 35.41753906 39.86287109 35.4609375 38.12890625 C34.90807255 34.37598401 33.77305637 33.45474835 31 31 C30.38804855 27.3282913 30.51293494 25.71186432 32.625 22.625 C35.71186432 20.51293494 37.3282913 20.38804855 41 21 C43.375 22.625 43.375 22.625 45 25 C45.5 28 45.5 28 45 31 C44.34 31.56976563 43.68 32.13953125 43 32.7265625 C40.20155079 35.90761219 40.53335482 38.19730897 40.5 42.375 C40.45302193 48.23551415 39.81979527 51.46072274 36 56 C31.7829571 59.50555587 27.8108156 59.48765766 22.5625 59.4375 C21.82451172 59.45748047 21.08652344 59.47746094 20.32617188 59.49804688 C15.10414087 59.49340507 12.14654637 58.41665354 8 55 C6.05164771 52.35580761 5.04229022 50.13532869 4.0625 47 C1.96968887 41.09088622 -2.32930811 37.73961062 -7.09765625 33.94140625 C-12.58359349 28.34282143 -12.54789587 22.28415955 -12.5625 14.875 C-12.59923828 13.88628906 -12.63597656 12.89757812 -12.67382812 11.87890625 C-12.69062781 9.12002481 -12.62196352 6.6886905 -12 4 C-8.15976249 0.39812206 -5.24026999 -0.71458227 0 0 Z " fill="#F4F6FD" transform="translate(36,22)"/>
</svg>
